<svg width="391" height="392" xmlns="http://www.w3.org/2000/svg" xmlns:xlink="http://www.w3.org/1999/xlink" xml:space="preserve" overflow="hidden"><g transform="translate(-374 -185)"><g><g><g><g><path d="M195 0C87.3275 0 0 87.3112 0 195 0 281.158 55.8675 354.25 133.364 380.039 143.098 381.842 146.25 375.797 146.25 370.663L146.25 334.36C92.0075 346.158 80.7138 311.35 80.7138 311.35 71.8412 288.811 59.0525 282.815 59.0525 282.815 41.3563 270.709 60.4012 270.969 60.4012 270.969 79.9825 272.334 90.285 291.07 90.285 291.07 107.673 320.872 135.899 312.26 147.03 307.271 148.769 294.678 153.822 286.065 159.413 281.206 116.106 276.25 70.5737 259.529 70.5737 184.827 70.5737 163.524 78.195 146.136 90.6588 132.486 88.6437 127.562 81.965 107.721 92.56 80.8763 92.56 80.8763 108.94 75.6438 146.201 100.864 161.753 96.5413 178.425 94.38 195 94.2988 211.575 94.38 228.264 96.5413 243.847 100.864 281.076 75.6438 297.424 80.8763 297.424 80.8763 308.035 107.738 301.356 127.579 299.341 132.486 311.854 146.136 319.41 163.54 319.41 184.827 319.41 259.724 273.796 276.217 230.376 281.044 237.364 287.089 243.75 298.951 243.75 317.151L243.75 370.663C243.75 375.846 246.87 381.94 256.766 380.022 334.198 354.201 390 281.125 390 195 390 87.3112 302.689 0 195 0Z" fill="#FFFFFF" fill-rule="nonzero" fill-opacity="1" transform="matrix(1 0 0 1.00256 375 186)"/></g></g></g></g></g></svg>