<svg width="711" height="646" xmlns="http://www.w3.org/2000/svg" xmlns:xlink="http://www.w3.org/1999/xlink" xml:space="preserve" overflow="hidden"><defs><linearGradient x1="3724.5" y1="728" x2="3724.5" y2="1368" gradientUnits="userSpaceOnUse" spreadMethod="reflect" id="fill0"><stop offset="0" stop-color="#E64DD3" stop-opacity="1"/><stop offset="0.22" stop-color="#E64DD3" stop-opacity="1"/><stop offset="1" stop-color="#3DE0E5" stop-opacity="1"/></linearGradient></defs><g transform="translate(-3368 -724)"><g><path d="M3575.57 1258.89 3574.84 1259.4C3566.62 1266.76 3562.07 1274.85 3562.07 1283.34 3562.07 1317.3 3634.79 1344.84 3724.5 1344.84 3814.21 1344.84 3886.93 1317.3 3886.93 1283.34 3886.93 1274.85 3882.38 1266.76 3874.16 1259.4L3873.43 1258.89 3859.88 1264.09C3821.23 1276.24 3774.65 1283.34 3724.5 1283.34 3674.35 1283.34 3627.77 1276.24 3589.12 1264.09ZM3724.5 1221.84C3690.86 1221.84 3659.61 1225.71 3633.69 1232.34L3612.67 1238.91 3640.86 1244.62C3666.57 1248.69 3694.83 1250.93 3724.5 1250.93 3754.17 1250.93 3782.43 1248.69 3808.14 1244.62L3836.33 1238.91 3815.31 1232.34C3789.39 1225.71 3758.14 1221.84 3724.5 1221.84ZM3531.18 1136.2 3526.52 1139.4C3515.65 1149.01 3509.64 1159.57 3509.64 1170.65 3509.64 1192.82 3533.68 1212.89 3572.57 1227.42L3583.11 1230.67 3595.87 1223.47C3628.79 1208.15 3674.27 1198.68 3724.5 1198.68 3774.73 1198.68 3820.21 1208.15 3853.13 1223.47L3865.89 1230.67 3876.43 1227.42C3915.32 1212.89 3939.37 1192.82 3939.37 1170.65 3939.37 1159.57 3933.35 1149.01 3922.48 1139.4L3917.82 1136.2 3888.31 1147.53C3841.55 1162.23 3785.18 1170.82 3724.5 1170.82 3663.82 1170.82 3607.45 1162.23 3560.69 1147.53ZM3724.5 1090.37C3680 1090.37 3638.66 1095.42 3604.37 1104.08L3574.4 1113.32 3579.26 1114.81C3620.72 1125.26 3670.7 1131.36 3724.5 1131.36 3778.3 1131.36 3828.28 1125.26 3869.74 1114.81L3874.6 1113.32 3844.63 1104.08C3810.34 1095.42 3769 1090.37 3724.5 1090.37ZM3474.27 1009.81 3470 1014.94C3466.54 1021.25 3464.72 1027.78 3464.72 1034.47 3464.72 1054.53 3481.08 1073.18 3509.09 1088.64L3535.92 1100.77 3553.29 1090.97C3597.11 1070.58 3657.64 1057.97 3724.5 1057.97 3791.36 1057.97 3851.89 1070.58 3895.71 1090.97L3913.08 1100.77 3939.91 1088.64C3967.92 1073.18 3984.28 1054.53 3984.28 1034.47 3984.28 1027.78 3982.46 1021.25 3979 1014.94L3974.73 1009.81 3922.7 1029.79C3866.13 1047.58 3797.92 1057.97 3724.5 1057.97 3651.08 1057.97 3582.87 1047.58 3526.3 1029.79ZM3724.5 937.574C3652.76 937.574 3587.82 948.419 3540.81 965.953L3510.19 979.797 3547.99 991.541C3598.38 1004.36 3659.12 1011.84 3724.5 1011.84 3789.88 1011.84 3850.62 1004.36 3901.01 991.541L3938.81 979.797 3908.19 965.953C3861.18 948.419 3796.24 937.574 3724.5 937.574ZM3724.5 774.126C3550.15 774.126 3408.81 827.34 3408.81 892.983 3408.81 917.599 3428.68 940.467 3462.72 959.437L3474.1 964.629 3481.56 958.232C3534.21 921.963 3623.37 898.117 3724.5 898.117 3825.63 898.117 3914.79 921.963 3967.44 958.232L3974.9 964.629 3986.28 959.437C4020.32 940.467 4040.19 917.599 4040.19 892.983 4040.19 827.34 3898.85 774.126 3724.5 774.126ZM3724.5 728C3920.29 728 4079 801.865 4079 892.983 4079 927.152 4056.68 958.895 4018.46 985.227L4002.87 994.018 4011.52 1006.99C4015.43 1015.86 4017.48 1025.05 4017.48 1034.47 4017.48 1062.71 3999.03 1088.94 3967.44 1110.7L3944.16 1123.84 3947.6 1126.79C3959.85 1140.27 3966.63 1155.09 3966.63 1170.65 3966.63 1201.77 3939.53 1229.94 3895.71 1250.33L3892.82 1251.44 3902.72 1266.28C3905.14 1271.79 3906.41 1277.49 3906.41 1283.34 3906.41 1330.1 3824.97 1368 3724.5 1368 3624.03 1368 3542.59 1330.1 3542.59 1283.34 3542.59 1277.49 3543.86 1271.79 3546.28 1266.28L3556.18 1251.44 3553.29 1250.33C3509.47 1229.94 3482.37 1201.77 3482.37 1170.65 3482.37 1155.09 3489.15 1140.27 3501.4 1126.79L3504.84 1123.84 3481.56 1110.7C3449.97 1088.94 3431.52 1062.71 3431.52 1034.47 3431.52 1025.05 3433.57 1015.86 3437.48 1006.99L3446.13 994.018 3430.54 985.227C3392.32 958.895 3370 927.152 3370 892.983 3370 801.865 3528.72 728 3724.5 728Z" fill="url(#fill0)" fill-rule="evenodd"/></g></g></svg>