<svg width="345" height="345" xmlns="http://www.w3.org/2000/svg" xmlns:xlink="http://www.w3.org/1999/xlink" xml:space="preserve" overflow="hidden"><g transform="translate(-628 -348)"><g><path d="M901.125 348 699.875 348C660.186 348 628 380.186 628 419.875L628 621.125C628 660.814 660.186 693 699.875 693L901.125 693C940.829 693 973 660.814 973 621.125L973 419.875C973 380.186 940.829 348 901.125 348ZM743 621.125 699.875 621.125 699.875 463 743 463 743 621.125ZM721.438 444.772C707.551 444.772 696.281 433.416 696.281 419.415 696.281 405.414 707.551 394.057 721.438 394.057 735.324 394.057 746.594 405.414 746.594 419.415 746.594 433.416 735.338 444.772 721.438 444.772ZM915.5 621.125 872.375 621.125 872.375 540.568C872.375 492.152 814.875 495.818 814.875 540.568L814.875 621.125 771.75 621.125 771.75 463 814.875 463 814.875 488.372C834.943 451.198 915.5 448.452 915.5 523.964L915.5 621.125Z" fill="#FFFFFF" fill-rule="nonzero" fill-opacity="1"/></g></g></svg>